<svg width="296" height="296" fill="none" xmlns="http://www.w3.org/2000/svg"><path d="M295.272 147.646c0 74.568-55.274 136.215-127.08 146.219a149.671 149.671 0 01-20.556 1.417c-8.049 0-15.952-.641-23.649-1.882C53.691 282.082 0 221.128 0 147.646 0 66.106 66.106 0 147.646 0c81.541 0 147.647 66.106 147.647 147.646h-.021z" fill="#1877F7"/><path d="M168.192 118.556v32.163h39.787l-6.3 43.326h-33.487v99.82a149.67 149.67 0 01-44.205-.465v-99.355H87.293v-43.326h36.694v-39.353c0-24.415 19.79-44.215 44.215-44.215v.02c.073 0 .135-.02.207-.02h39.581v37.47h-25.863c-7.687 0-13.925 6.238-13.925 13.924l-.01.011z" fill="#fff"/></svg>