<svg width="296" height="296" fill="none" xmlns="http://www.w3.org/2000/svg"><path d="M147.977 0h-.672C65.951 0 0 65.95 0 147.305v.672c0 81.355 65.95 147.305 147.305 147.305h.672c81.355 0 147.305-65.95 147.305-147.305v-.672C295.282 65.951 229.332 0 147.977 0z" fill="url(#paint0_linear_1_14434)"/><path d="M193.331 60.074h-91.369c-25.242 0-45.777 20.535-45.777 45.778v83.589c0 25.242 20.535 45.777 45.777 45.777h91.369c25.242 0 45.777-20.535 45.777-45.777v-83.589c0-25.243-20.535-45.778-45.777-45.778zM72.334 105.852c0-16.335 13.293-29.629 29.628-29.629h91.369c16.335 0 29.628 13.294 29.628 29.629v83.589c0 16.335-13.293 29.628-29.628 29.628h-91.369c-16.335 0-29.629-13.293-29.629-29.628v-83.589z" fill="#fff"/><path d="M147.646 190.217c23.474 0 42.581-19.098 42.581-42.581 0-23.484-19.097-42.581-42.581-42.581-23.483 0-42.58 19.097-42.58 42.581 0 23.483 19.097 42.581 42.58 42.581zm0-69.003c14.577 0 26.432 11.856 26.432 26.432 0 14.577-11.855 26.432-26.432 26.432-14.576 0-26.431-11.855-26.431-26.432 0-14.576 11.855-26.432 26.431-26.432zm46.523-9.279c6.321 0 11.473-5.142 11.473-11.473s-5.142-11.473-11.473-11.473c-6.332 0-11.473 5.142-11.473 11.473s5.141 11.473 11.473 11.473z" fill="#fff"/><defs><linearGradient id="paint0_linear_1_14434" x1="43.139" y1="252.143" x2="252.143" y2="43.15" gradientUnits="userSpaceOnUse"><stop stop-color="#FAAD4F"/><stop offset=".35" stop-color="#DD2A7B"/><stop offset=".62" stop-color="#9537B0"/><stop offset="1" stop-color="#515BD4"/></linearGradient></defs></svg>