<svg width="296" height="296" fill="none" xmlns="http://www.w3.org/2000/svg"><path d="M147.977 0h-.672C65.951 0 0 65.95 0 147.305v.672c0 81.355 65.95 147.305 147.305 147.305h.672c81.355 0 147.305-65.95 147.305-147.305v-.672C295.282 65.951 229.332 0 147.977 0z" fill="#000"/><path d="M222.504 117.263v27.88a73.821 73.821 0 01-18.207-4.149 73.276 73.276 0 01-20.412-11.483v56.35l-.113-.175c.072 1.117.113 2.255.113 3.403 0 27.984-22.769 50.764-50.763 50.764s-50.764-22.78-50.764-50.764 22.77-50.774 50.764-50.774c2.741 0 5.431.217 8.059.641v27.477a23.943 23.943 0 00-8.059-1.386c-13.252 0-24.042 10.78-24.042 24.042 0 13.263 10.79 24.042 24.042 24.042 13.252 0 24.042-10.79 24.042-24.042 0-.496-.01-.993-.041-1.49V78.096h27.859c.104 2.358.197 4.738.3 7.096a21.982 21.982 0 004.728 12.756c3.383 4.293 8.379 9.28 15.393 13.263 6.57 3.724 12.735 5.317 17.101 6.072v-.02z" fill="#FF004F"/><path d="M212.924 94.638v27.88a73.841 73.841 0 01-18.207-4.149 73.283 73.283 0 01-20.411-11.483v56.351l-.114-.176c.072 1.117.114 2.255.114 3.403 0 27.984-22.77 50.764-50.764 50.764-27.994 0-50.764-22.78-50.764-50.764s22.77-50.774 50.764-50.774c2.742 0 5.431.217 8.059.641v27.477a23.939 23.939 0 00-8.059-1.386c-13.252 0-24.042 10.78-24.042 24.042 0 13.263 10.79 24.042 24.042 24.042 13.252 0 24.042-10.79 24.042-24.042 0-.496-.01-.993-.041-1.49V55.471h27.859c.104 2.359.197 4.738.3 7.097a21.988 21.988 0 004.728 12.755c3.383 4.294 8.38 9.28 15.394 13.263 6.569 3.714 12.735 5.317 17.1 6.072v-.02z" fill="#00F7EF"/><path d="M219.018 106.824v27.881a73.838 73.838 0 01-18.208-4.149 73.333 73.333 0 01-20.411-11.483v56.35l-.114-.176c.073 1.118.114 2.256.114 3.404 0 27.984-22.77 50.764-50.764 50.764-27.994 0-50.763-22.78-50.763-50.764s22.769-50.774 50.763-50.774c2.742 0 5.432.217 8.059.641v27.477a23.935 23.935 0 00-8.059-1.386c-13.252 0-24.042 10.779-24.042 24.042 0 13.262 10.79 24.042 24.042 24.042 13.253 0 24.043-10.79 24.043-24.042 0-.497-.011-.993-.042-1.49V67.657h27.86c.103 2.36.196 4.739.3 7.097a21.981 21.981 0 004.727 12.756c3.383 4.293 8.38 9.28 15.394 13.262 6.569 3.714 12.735 5.318 17.101 6.073v-.021z" fill="#fff"/></svg>